<svg width="19" height="19" viewBox="0 0 19 19" fill="none" xmlns="http://www.w3.org/2000/svg">
<path fill-rule="evenodd" clip-rule="evenodd" d="M17 9.5C17 13.6421 13.6421 17 9.5 17C5.35786 17 2 13.6421 2 9.5C2 5.35786 5.35786 2 9.5 2C13.6421 2 17 5.35786 17 9.5ZM19 9.5C19 14.7467 14.7467 19 9.5 19C4.25329 19 0 14.7467 0 9.5C0 4.25329 4.25329 0 9.5 0C14.7467 0 19 4.25329 19 9.5ZM8.5 12.5C8.5 13.0523 8.94772 13.5 9.5 13.5C10.0523 13.5 10.5 13.0523 10.5 12.5V10.5H12.5C13.0523 10.5 13.5 10.0523 13.5 9.5C13.5 8.94772 13.0523 8.5 12.5 8.5H10.5V6.5C10.5 5.94772 10.0523 5.5 9.5 5.5C8.94772 5.5 8.5 5.94772 8.5 6.5V8.5H6.5C5.94772 8.5 5.5 8.94772 5.5 9.5C5.5 10.0523 5.94772 10.5 6.5 10.5H8.5V12.5Z" fill="white"/>
</svg>
