<svg width="22" height="20" viewBox="0 0 22 20" fill="none" xmlns="http://www.w3.org/2000/svg">
<path d="M15 20C14.7663 20.0005 14.5399 19.9191 14.36 19.77L9.84 16H8C5.87827 16 3.84344 15.1571 2.34315 13.6569C0.842854 12.1566 0 10.1217 0 8C0 5.87827 0.842854 3.84344 2.34315 2.34315C3.84344 0.842855 5.87827 0 8 0H14C15.9431 0.0055485 17.8178 0.718141 19.274 2.00472C20.7303 3.2913 21.6684 5.06391 21.9133 6.99156C22.1583 8.91921 21.6933 10.8701 20.6051 12.48C19.5169 14.0899 17.88 15.2487 16 15.74V19C16.0005 19.1913 15.9461 19.3787 15.8433 19.5399C15.7405 19.7012 15.5936 19.8297 15.42 19.91C15.2882 19.9701 15.1449 20.0008 15 20ZM8 2C6.4087 2 4.88258 2.63214 3.75736 3.75736C2.63214 4.88258 2 6.4087 2 8C2 9.5913 2.63214 11.1174 3.75736 12.2426C4.88258 13.3679 6.4087 14 8 14H10.2C10.4337 13.9995 10.6601 14.0809 10.84 14.23L14 16.86V14.92C13.9976 14.6773 14.0835 14.4421 14.2418 14.2581C14.4 14.0741 14.6197 13.954 14.86 13.92C16.3378 13.6778 17.6716 12.8918 18.5994 11.7163C19.5272 10.5408 19.9819 9.06085 19.8741 7.56722C19.7663 6.07359 19.1039 4.67425 18.017 3.64412C16.9301 2.61399 15.4973 2.02754 14 2H8Z" fill="black"/>
<path d="M12 7H10V9H12V7Z" fill="black"/>
<path d="M7 7H5V9H7V7Z" fill="black"/>
<path d="M17 7H15V9H17V7Z" fill="black"/>
</svg>
