<svg width="19" height="17" viewBox="0 0 19 17" fill="none" xmlns="http://www.w3.org/2000/svg">
<path d="M17.1521 1.17286C16.2873 0.378355 15.1775 -0.0321777 14.0566 0.00197016C12.665 0.00197016 11.2605 0.586278 10.2335 1.67066L9.50225 2.43975L8.77104 1.67066C7.74289 0.586278 6.33986 0.00197016 4.94796 0.00197016C3.82701 0.00197016 2.71832 0.378735 1.82045 1.17286C-0.486021 3.21376 -0.601456 6.85278 1.47786 9.04963L8.64892 16.6267C8.8861 16.8748 9.19047 17 9.49854 17C9.8078 17 10.118 16.876 10.3526 16.628L17.52 9.05099C19.6056 6.85051 19.4905 3.21187 17.1521 1.17286ZM16.2428 7.78388L9.50225 14.9094L2.75952 7.78388C1.56286 6.52041 1.27928 4.02762 2.98668 2.54978C4.46766 1.23926 6.4976 1.88579 7.49272 2.93565L9.50337 5.05737L11.5136 2.93565C12.4943 1.90097 14.5298 1.23243 16.0197 2.54978C17.7089 4.04659 17.4639 6.49385 16.2428 7.78388Z" fill="black"/>
</svg>
