<svg width="18" height="14" viewBox="0 0 18 14" fill="none" xmlns="http://www.w3.org/2000/svg">
<path fill-rule="evenodd" clip-rule="evenodd" d="M18 1C18 1.55228 17.5523 2 17 2H7C6.44772 2 6 1.55228 6 1C6 0.447715 6.44772 0 7 0H17C17.5523 0 18 0.447715 18 1Z" fill="black"/>
<path d="M0 1H3" stroke="black" stroke-width="2"/>
<path fill-rule="evenodd" clip-rule="evenodd" d="M18 7C18 7.55228 17.5523 8 17 8H7C6.44772 8 6 7.55228 6 7C6 6.44772 6.44772 6 7 6H17C17.5523 6 18 6.44772 18 7Z" fill="black"/>
<path d="M0 7H3" stroke="black" stroke-width="2"/>
<path fill-rule="evenodd" clip-rule="evenodd" d="M18 13C18 13.5523 17.5523 14 17 14H7C6.44772 14 6 13.5523 6 13C6 12.4477 6.44772 12 7 12H17C17.5523 12 18 12.4477 18 13Z" fill="black"/>
<path d="M0 13H3" stroke="black" stroke-width="2"/>
</svg>
