<svg width="59" height="41" viewBox="0 0 59 41" fill="none" xmlns="http://www.w3.org/2000/svg">
<path d="M28.15 25.5389C28.1526 24.5121 27.9536 23.4951 27.5645 22.5472C27.1754 21.5995 26.6039 20.7399 25.8836 20.0188C25.8062 19.9408 25.7143 19.8789 25.6131 19.8368C25.5118 19.7946 25.4032 19.7731 25.2936 19.7735C25.184 19.7739 25.0756 19.7962 24.9746 19.8391C24.8737 19.882 24.7821 19.9446 24.7052 20.0232C24.6284 20.1018 24.5676 20.1949 24.5263 20.2972C24.485 20.3994 24.464 20.5088 24.4644 20.6191C24.4648 20.7295 24.4866 20.8387 24.5285 20.9406C24.5705 21.0426 24.632 21.1352 24.7094 21.2133L24.7096 21.2135C25.2725 21.7791 25.7195 22.4525 26.0245 23.1949C26.3296 23.9373 26.4865 24.7339 26.4863 25.5384V25.5385C26.4863 25.6808 26.381 25.8778 26.1082 26.1038C25.8417 26.3245 25.4413 26.5506 24.9176 26.7538C23.8715 27.1597 22.3563 27.4654 20.5 27.4654C18.6438 27.4654 17.1285 27.1597 16.0824 26.7538C15.5587 26.5506 15.1583 26.3245 14.8918 26.1038C14.619 25.8778 14.5137 25.6808 14.5137 25.5385L14.5137 25.5383C14.5126 24.739 14.6667 23.9474 14.967 23.2088C15.2674 22.4701 15.7081 21.799 16.2638 21.2336L16.264 21.2334C16.4187 21.0754 16.5051 20.8622 16.5051 20.6404C16.5051 20.4186 16.4187 20.2054 16.264 20.0474L16.2634 20.0467C16.1077 19.8896 15.8967 19.801 15.6762 19.801C15.4557 19.801 15.2446 19.8896 15.0889 20.0467L15.0889 20.0468C14.3762 20.7664 13.8113 21.6225 13.427 22.5653C13.0428 23.5079 12.8467 24.5186 12.85 25.5387C12.8502 26.7621 13.8992 27.6634 15.3302 28.2517C16.7737 28.8452 18.6691 29.15 20.5 29.15C22.3309 29.15 24.2263 28.8452 25.6698 28.2517C27.1007 27.6634 28.1497 26.7622 28.15 25.5389ZM28.15 25.5389L28 25.5385H28.15C28.15 25.5386 28.15 25.5387 28.15 25.5389ZM20.5 20.8423C21.4741 20.8423 22.4262 20.549 23.2358 19.9997C24.0454 19.4505 24.676 18.67 25.0483 17.7574C25.4206 16.8447 25.518 15.8406 25.3282 14.8719C25.1384 13.9032 24.67 13.013 23.9817 12.3142C23.2934 11.6153 22.4162 11.139 21.4608 10.9461C20.5054 10.7531 19.5152 10.8522 18.6154 11.2306C17.7157 11.6091 16.947 12.2497 16.4063 13.0713C15.8657 13.8929 15.5773 14.8585 15.5773 15.8462C15.5773 17.1705 16.0954 18.441 17.0183 19.3782C17.9413 20.3154 19.1937 20.8423 20.5 20.8423ZM20.5 12.5346C21.1441 12.5346 21.7739 12.7285 22.3098 13.0921C22.8457 13.4557 23.2637 13.9728 23.5107 14.5781C23.7577 15.1835 23.8223 15.8498 23.6964 16.4926C23.5705 17.1354 23.2597 17.7256 22.8037 18.1886C22.3478 18.6515 21.7671 18.9666 21.1354 19.0942C20.5036 19.2217 19.8488 19.1563 19.2536 18.9059C18.6583 18.6556 18.1492 18.2314 17.7908 17.6868C17.4324 17.1422 17.2409 16.5016 17.2409 15.8462C17.2409 14.9671 17.5848 14.1246 18.1963 13.5037C18.8077 12.8829 19.6364 12.5346 20.5 12.5346Z" fill="#61A4DA" stroke="#61A4DA" stroke-width="0.3"/>
<circle cx="20.5" cy="20.5" r="19.5" stroke="#61A4DA" stroke-width="2"/>
<path d="M53.3086 24.1703L50.2301 20.4762C49.7416 19.89 50.1585 19 50.9215 19H57.0785C57.8415 19 58.2584 19.89 57.7699 20.4762L54.6914 24.1703C54.3316 24.6021 53.6684 24.6021 53.3086 24.1703Z" fill="#61A4DA"/>
</svg>
