<svg width="461" height="70" viewBox="0 0 461 70" fill="none" xmlns="http://www.w3.org/2000/svg">
<path d="M0 36.5335C9.70638 25.172 20.0771 14.3951 31.0577 4.25943C33.2762 2.21873 34.6959 0.976562 34.6959 0.976562L43.259 13.3095L8.56306 40.3709L0 36.5335Z" fill="#61A4DA"/>
<path d="M62.5145 28.8365L30.8356 7.4092C30.8356 7.4092 28.6172 0.976562 30.8356 0.976562C33.164 1.39905 35.4615 1.97706 37.7126 2.70672C38.5556 2.70672 48.4054 6.76594 49.6921 10.8252C50.9787 14.8844 62.5367 24.5333 62.5367 24.5333L66.3745 28.8365H62.5145Z" fill="#61A4DA"/>
<path d="M6.36719 35.4904C16.0794 24.1411 26.4499 13.372 37.4249 3.2385L41.0409 0L49.6262 12.4216L14.9303 39.3944L6.36719 35.4904Z" fill="#E9D986"/>
<path d="M68.8817 27.8378L37.2028 6.43264C37.2028 6.43264 34.9843 0 37.2028 0C39.5228 0.417845 41.8128 0.988411 44.0576 1.70798C44.9006 1.70798 54.7504 5.78937 56.0371 9.84859C57.3237 13.9078 68.8817 23.5568 68.8817 23.5568L72.7417 27.8378H68.8817Z" fill="#E9D986"/>
<path d="M458.679 68.4517C459.169 68.502 459.663 68.4336 460.121 68.2521C460.251 68.1798 460.37 68.0902 460.476 67.9859C460.56 67.8456 460.598 67.683 460.587 67.5201C460.6 67.3058 460.6 67.091 460.587 66.8768C460.587 66.3444 460.454 64.6586 460.387 61.9747C460.321 59.2907 460.387 56.9838 460.387 55.1871C460.387 54.4551 460.387 52.3923 460.587 48.9763C460.786 45.5604 460.764 43.2757 460.764 42.3219C460.764 39.5048 460.897 37.7525 460.986 37.087C460.975 36.8875 460.975 36.6876 460.986 36.4881C461.005 36.3112 461.005 36.1327 460.986 35.9558C460.986 35.5343 460.831 35.3125 460.52 35.3125H458.79C458.302 35.3125 458.058 35.7118 458.058 36.5103V37.4863C458.134 38.5126 458.134 39.5432 458.058 40.5695C458.058 42.3219 457.947 43.5862 457.925 44.3404C457.792 47.6232 457.725 49.7305 457.725 50.6621V60.3776V66.4553V67.9415C457.681 68.0633 457.681 68.1968 457.725 68.3186C457.885 68.3599 458.053 68.3599 458.213 68.3186L458.679 68.4517ZM441.065 69.0949C444.292 69.2776 447.502 68.5062 450.293 66.8768C451.379 66.153 452.257 65.1585 452.841 63.9914C453.425 62.8243 453.693 61.5252 453.621 60.2223C453.695 57.6925 453.032 55.1958 451.713 53.0355C450.679 51.2593 449.133 49.8368 447.276 48.9541L444.57 47.8007C443.171 47.2181 441.846 46.4736 440.621 45.5825C440.143 45.2228 439.76 44.752 439.505 44.2109C439.25 43.6698 439.13 43.0747 439.157 42.4771C439.157 41.1241 439.423 40.259 439.978 39.8597C440.633 39.4274 441.413 39.2246 442.196 39.283C443.417 39.3229 444.598 39.7244 445.59 40.4364C446.852 41.2849 448.06 42.211 449.206 43.2091C449.439 43.3729 449.661 43.5506 449.872 43.7415C450.116 43.9411 450.249 44.052 450.316 44.052C450.431 44.0909 450.555 44.0909 450.671 44.052L450.937 43.7415L451.247 43.3422C451.447 43.0982 451.735 42.6989 452.09 42.1666L452.867 41.0353C452.867 41.0353 452.867 40.8801 453.022 40.7248C453.055 40.6163 453.055 40.5006 453.022 40.3921C453.026 40.313 453.012 40.2342 452.981 40.1613C452.95 40.0884 452.904 40.0233 452.845 39.9706C451.493 38.7017 450.005 37.5859 448.408 36.6434C446.187 35.4111 443.67 34.8126 441.131 34.9132C439.639 34.9954 438.187 35.4286 436.894 36.1776C435.263 37.0051 433.838 38.1875 432.724 39.6379C431.591 41.0621 430.98 42.8313 430.993 44.6509C430.962 46.0209 431.332 47.3702 432.058 48.5327C432.7 49.5825 433.536 50.5008 434.52 51.2388C435.585 52.0024 436.697 52.6987 437.848 53.3239C438.388 53.5996 438.914 53.9032 439.423 54.2333C442.795 56.6511 444.481 58.9136 444.481 61.0652C444.532 61.5652 444.435 62.069 444.202 62.5144C443.969 62.9598 443.611 63.3274 443.172 63.5718C442.232 64.05 441.188 64.2863 440.133 64.2594C438.964 64.2528 437.809 64.0051 436.74 63.5319C435.672 63.0586 434.712 62.3699 433.922 61.5089C433.746 61.3503 433.59 61.1716 433.456 60.9765C433.256 60.7547 433.101 60.6438 432.945 60.6438C432.801 60.6517 432.666 60.7153 432.568 60.8212C431.933 61.4398 431.347 62.1073 430.816 62.8176C430.641 62.9815 430.511 63.1878 430.439 63.4165C430.448 63.5864 430.51 63.7492 430.616 63.8823C430.616 63.8823 431.326 64.8361 432.524 66.5441C433.722 68.252 436.561 69.1171 440.998 69.1171L441.065 69.0949ZM423.251 68.6957C424.129 68.7005 424.986 68.4203 425.691 67.8971C426.012 67.684 426.277 67.3981 426.466 67.0627C426.655 66.7273 426.762 66.352 426.778 65.9674C426.778 63.2168 425.602 61.8416 423.251 61.8416C422.406 61.8149 421.573 62.0387 420.855 62.4849C420.509 62.7964 420.243 63.1871 420.081 63.6236C419.919 64.0601 419.865 64.5294 419.923 64.9914C419.889 65.4938 419.956 65.998 420.12 66.4742C420.284 66.9504 420.541 67.389 420.877 67.7641C421.192 68.0678 421.564 68.3064 421.971 68.4662C422.379 68.6261 422.813 68.7041 423.251 68.6957Z" fill="#61A4DA"/>
<path d="M405.969 68.7633C407.248 68.8624 408.533 68.6991 409.747 68.2833C410.96 67.8675 412.075 67.2081 413.024 66.3455C414.453 64.9762 415.481 63.2429 415.997 61.3325C416.35 59.9613 416.551 58.5554 416.596 57.1402C416.64 56.7633 416.586 56.3814 416.44 56.0311C416.387 55.9048 416.298 55.7971 416.183 55.722C416.068 55.6469 415.934 55.6078 415.797 55.6096L406.302 55.8315H404.084C403.946 55.8251 403.81 55.8729 403.707 55.9646C403.707 55.9646 403.574 56.2307 403.574 56.5413V58.338C403.563 58.4417 403.575 58.5465 403.611 58.6446C403.646 58.7426 403.703 58.8313 403.778 58.904C403.853 58.9767 403.943 59.0314 404.042 59.0639C404.141 59.0965 404.247 59.1062 404.35 59.0921H409.031H411.116H412.469C412.319 60.0271 411.987 60.9238 411.493 61.7317C410.942 62.5709 410.182 63.2518 409.287 63.707C408.392 64.1621 407.394 64.3758 406.391 64.327C405.588 64.3339 404.795 64.1529 404.075 63.7986C403.354 63.4443 402.727 62.9264 402.243 62.2863C401.109 60.8415 400.299 59.1696 399.869 57.3842C398.878 53.8741 398.878 50.1584 399.869 46.6483C400.268 44.9067 400.982 43.2528 401.976 41.7684C402.31 41.185 402.786 40.6958 403.36 40.3467C403.935 39.9975 404.588 39.7998 405.26 39.7721C405.952 39.7207 406.648 39.8233 407.296 40.0726C407.944 40.3219 408.529 40.7116 409.009 41.2138C409.852 42.1898 410.295 42.7222 410.362 42.7666C410.466 42.8911 410.594 42.9929 410.739 43.0654C410.884 43.138 411.043 43.1797 411.205 43.188C411.347 43.1781 411.484 43.1323 411.604 43.0549C411.959 42.8109 412.336 42.5226 412.758 42.1677C413.179 41.8127 413.512 41.5244 413.8 41.236C413.927 41.1117 414.028 40.9633 414.097 40.7995C414.165 40.6357 414.2 40.4598 414.2 40.2822C414.2 39.9519 414.073 39.6342 413.845 39.395C413.712 39.2619 413.445 38.907 413.002 38.3081C412.383 37.5255 411.632 36.8574 410.783 36.3339C409.312 35.5315 407.642 35.1623 405.969 35.2692C403.976 35.3308 402.074 36.1199 400.623 37.4874C398.848 39.0444 397.465 40.9973 396.586 43.188C395.574 45.6116 395.06 48.2143 395.077 50.8406C395.076 53.7178 395.494 56.5798 396.319 59.3361C396.996 61.8614 398.266 64.1884 400.024 66.1237C400.767 66.9651 401.683 67.6365 402.709 68.092C403.735 68.5475 404.847 68.7765 405.969 68.7633ZM380.48 48.2898V47.9127V47.4912C380.48 46.9453 380.547 46.4015 380.68 45.872C380.697 45.6283 380.697 45.3837 380.68 45.14C380.68 44.7407 380.68 44.3414 380.68 43.92C380.68 43.4985 380.68 43.3211 380.68 43.2767C380.81 43.1344 380.973 43.0263 381.154 42.9618C381.336 42.8973 381.531 42.8785 381.721 42.9069C381.912 42.9354 382.093 43.0104 382.248 43.1251C382.403 43.2399 382.527 43.391 382.61 43.5651C382.939 44.1763 383.085 44.8693 383.031 45.5614C383.091 46.0508 383 46.5468 382.77 46.9829C382.54 47.419 382.182 47.7744 381.744 48.0014C381.353 48.2003 380.919 48.2993 380.48 48.2898ZM374.313 68.9186C374.601 68.9186 375.378 68.9186 376.686 68.7189C377.885 68.5645 379.094 68.5052 380.302 68.5415H380.768C381.345 68.5415 381.634 68.2753 381.634 67.6986C381.659 67.5518 381.659 67.4017 381.634 67.2549C381.523 66.8113 381.367 64.5266 381.168 60.3787L380.946 56.874L380.813 54.4118L383.164 59.0034C384.643 62.0645 385.708 64.1495 386.359 65.2586C386.692 65.8472 386.974 66.4631 387.202 67.0997C387.372 67.502 387.564 67.8945 387.779 68.2753C387.84 68.3724 387.925 68.452 388.026 68.5064C388.127 68.5608 388.241 68.5882 388.355 68.5858L393.591 68.4527H393.857H394.256C394.412 68.4527 394.478 68.3418 394.478 68.2087C394.354 67.727 394.135 67.2747 393.835 66.8779C393.435 66.3233 392.038 63.9055 389.664 59.6467L386.425 53.7464C387.258 53.0391 388.002 52.2348 388.644 51.3508C390.043 49.4687 390.818 47.1963 390.862 44.8516C390.91 43.5817 390.703 42.3151 390.254 41.1265C389.804 39.9379 389.121 38.8513 388.244 37.931C387.19 36.9828 385.955 36.258 384.613 35.8005C383.27 35.3431 381.85 35.1623 380.436 35.2692C378.73 35.2944 377.026 35.4129 375.333 35.6241L374.313 35.735H373.736C373.736 35.735 373.514 35.8681 373.425 36.0677C373.32 36.4122 373.275 36.7725 373.292 37.1324C373.292 37.5761 373.292 37.9088 373.292 38.1528C373.425 40.0826 373.47 42.8996 373.47 46.6483C373.536 48.8246 373.462 51.0029 373.248 53.1697C373.137 54.0151 373.092 54.8681 373.115 55.7206C373.115 58.1162 373.204 60.911 373.381 64.1052V66.8113V67.876C373.353 68.1537 373.432 68.4317 373.603 68.6524C373.712 68.7459 373.839 68.8158 373.977 68.8578C374.114 68.8998 374.259 68.9129 374.401 68.8964L374.313 68.9186ZM360.226 67.876H362.267C362.823 67.9239 363.381 67.8245 363.886 67.5877C364.197 67.4102 364.33 67.0109 364.308 66.3899C364.286 65.7688 364.308 64.6819 364.019 62.2197C364.019 61.7317 364.019 60.5339 363.775 58.6263C363.531 56.7187 363.553 55.166 363.553 53.9239V45.7611L363.664 37.3764H363.82C364.825 37.3764 365.668 37.3764 366.349 37.3764H367.768C368.077 37.3998 368.383 37.3134 368.634 37.1324C368.739 37.0262 368.816 36.8957 368.858 36.7526C368.901 36.6095 368.907 36.4581 368.878 36.3117C368.878 36.1786 368.878 36.0012 368.878 35.735C368.929 35.5236 368.929 35.3032 368.878 35.0918C368.878 34.9365 368.567 34.8478 368.19 34.8256H364.308H356.233H346.361C346.147 34.8499 345.931 34.8499 345.717 34.8256H345.252C345.122 34.7847 344.982 34.7847 344.852 34.8256C344.765 34.9727 344.727 35.1433 344.741 35.3136V36.3339C344.741 36.8441 344.741 37.0881 345.118 37.0881L348.956 36.9772H349.799C349.904 38.1127 349.949 39.2529 349.932 40.3931C349.932 41.7684 349.932 42.8331 349.932 43.6316C349.799 45.1843 349.711 47.4912 349.622 50.5523C349.533 53.6133 349.511 56.4747 349.511 59.1587C349.511 61.1772 349.511 62.5746 349.511 63.3954C349.511 63.8168 349.511 64.4379 349.511 65.2364C349.511 66.035 349.511 66.279 349.511 66.5008C349.511 67.0997 349.666 67.4102 349.977 67.4102H352.839L360.448 67.5655" fill="#E9D986"/>
<path d="M339.418 68.4518C339.908 68.4996 340.402 68.4312 340.86 68.2522C340.987 68.1863 341.1 68.0958 341.193 67.986C341.296 67.854 341.344 67.6869 341.326 67.5202C341.339 67.306 341.339 67.0911 341.326 66.8769C341.326 66.3446 341.193 64.6588 341.126 61.9748C341.06 59.2909 341.126 56.984 341.126 55.1873C341.126 54.4553 341.126 52.3924 341.304 48.9765C341.481 45.5605 341.503 43.2758 341.503 42.322C341.503 39.505 341.636 37.7526 341.725 37.0872C341.714 36.8877 341.714 36.6878 341.725 36.4883C341.745 36.3114 341.745 36.1328 341.725 35.9559C341.725 35.5345 341.57 35.3127 341.259 35.3127H339.551C339.063 35.3127 338.819 35.7119 338.819 36.5105V37.4864C338.895 38.5128 338.895 39.5433 338.819 40.5697C338.819 42.322 338.708 43.5864 338.686 44.3405C338.553 47.6234 338.486 49.7306 338.486 50.6623V60.3778V66.4555V67.9416C338.442 68.0635 338.442 68.1969 338.486 68.3187C338.646 68.3601 338.814 68.3601 338.974 68.3187L339.418 68.4518ZM328.193 68.3187L334.183 68.1635C334.715 68.1635 334.959 68.0526 334.959 67.8086C334.959 67.6713 334.912 67.5382 334.826 67.4315L333.894 66.3224C332.541 64.681 331.676 63.7272 331.41 63.4388C331.143 63.1504 330.078 61.997 328.104 59.6901C326.573 57.8269 325.642 56.7622 325.331 56.4516C324.464 55.5776 323.642 54.6596 322.869 53.7011C321.626 52.2371 321.094 51.5939 321.249 51.8157L323.756 49.2205L326.662 46.0707C326.951 45.6714 327.838 44.5402 329.346 42.7213C330.855 40.9024 331.742 39.8599 332.053 39.5715C332.363 39.2831 333.029 38.6842 333.761 37.9301L334.959 36.7101C335.088 36.6028 335.174 36.4535 335.203 36.2886C335.203 36.089 335.092 36.0003 334.87 35.9559C334.634 35.9317 334.396 35.9317 334.16 35.9559H333.584C333.376 36.017 333.182 36.1191 333.015 36.2563C332.847 36.3934 332.708 36.5628 332.607 36.7544C332.474 36.9541 331.498 38.0853 329.679 40.0817C329.213 40.5475 328.747 41.0577 328.237 41.6122C327.727 42.1667 326.618 43.2758 325.708 44.2962C324.799 45.3165 324.178 46.0041 323.934 46.3369L321.671 48.799C320.672 49.8637 319.985 50.5735 319.63 50.9063C318.876 51.6604 318.432 52.1041 318.277 52.3037L317.544 53.08V51.5051V49.9746C317.544 49.5754 317.544 49.043 317.655 48.3554C317.766 47.6677 317.833 45.0725 317.833 41.4569V36.5105C317.871 36.3725 317.871 36.227 317.833 36.089C317.694 35.9821 317.519 35.9343 317.345 35.9559H317.056C316.658 35.9881 316.257 35.9881 315.858 35.9559H314.971H313.64H313.174C313.02 35.9344 312.863 35.9344 312.708 35.9559C312.644 35.9497 312.578 35.9572 312.516 35.9778C312.455 35.9984 312.398 36.0317 312.35 36.0756C312.302 36.1195 312.263 36.173 312.237 36.2326C312.211 36.2922 312.198 36.3566 312.198 36.4217C312.104 37.0088 312.053 37.6018 312.043 38.1962C312.043 39.1057 312.043 40.0373 312.043 40.9468C312.003 41.5968 312.003 42.2487 312.043 42.8987C312.043 43.1871 312.043 43.8969 312.043 45.1169C312.075 46.6639 312.023 48.2115 311.888 49.7528C311.888 50.2852 311.71 52.4146 311.643 56.1411C311.577 59.8676 311.51 62.5737 311.488 64.2595C311.465 64.5548 311.465 64.8515 311.488 65.1468C311.47 65.3756 311.47 65.6055 311.488 65.8344C311.566 66.3267 311.566 66.8282 311.488 67.3206C311.395 67.5473 311.335 67.7864 311.311 68.0304C311.311 68.2078 311.311 68.2966 311.621 68.2966C311.805 68.3319 311.993 68.3319 312.176 68.2966C312.553 68.2966 313.13 68.2966 313.951 68.2966H315.06H316.901C317.062 68.3282 317.228 68.3282 317.389 68.2966C317.389 68.2966 317.567 68.1191 317.567 67.8973C317.577 67.7866 317.577 67.6752 317.567 67.5646C317.425 66.8343 317.372 66.0894 317.411 65.3464V62.1523L317.522 59.18C317.522 58.7807 317.522 58.1152 317.522 57.1836L319.186 59.0912C319.961 59.9296 320.791 60.7151 321.671 61.4425C322.092 61.9083 322.869 62.9065 323.889 64.4148C324.652 65.4801 325.475 66.502 326.352 67.4758C326.597 67.7427 326.89 67.961 327.217 68.1191C327.507 68.2599 327.826 68.3284 328.148 68.3187H328.193ZM294.739 68.5405C297.514 68.5789 300.254 67.915 302.703 66.6108C303.926 65.8939 304.915 64.8373 305.549 63.5694C306.183 62.3015 306.435 60.8768 306.275 59.4683C306.341 57.675 305.861 55.9039 304.9 54.3887C304.082 53.1504 302.988 52.118 301.705 51.3721C300.408 50.6446 299.058 50.0144 297.668 49.4866C297.208 49.3398 296.756 49.1695 296.314 48.9765C295.038 48.2955 293.866 47.4366 292.831 46.4256C292.393 46.0081 292.045 45.5054 291.809 44.9485C291.572 44.3916 291.452 43.7921 291.456 43.1871C291.441 42.488 291.582 41.7944 291.87 41.1573C292.158 40.5201 292.585 39.9555 293.12 39.505C294.495 38.4347 296.218 37.913 297.956 38.041C300.155 38.2774 302.233 39.1657 303.923 40.5918L304.234 40.8802C304.409 41.008 304.617 41.0848 304.833 41.102C304.981 41.102 305.203 40.9024 305.499 40.5031L306.053 39.7046C306.156 39.6136 306.219 39.4864 306.231 39.3497C306.231 39.1279 306.075 38.9061 305.765 38.6842L303.724 37.0206C301.968 35.8395 299.866 35.2847 297.756 35.4457C296.048 35.465 294.362 35.8429 292.809 36.5548C291.18 37.3267 289.764 38.484 288.683 39.9264C287.588 41.3572 287.01 43.1161 287.041 44.9172C286.946 46.9504 287.601 48.9477 288.883 50.5292C290.333 52.1335 292.043 53.4831 293.941 54.5218L295.937 55.6309C297.34 56.3334 298.67 57.173 299.908 58.1374C300.297 58.4302 300.614 58.8085 300.833 59.2432C301.052 59.6778 301.168 60.1571 301.173 60.6439C301.287 61.5202 301.137 62.4106 300.741 63.201C300.346 63.9914 299.724 64.6458 298.954 65.0802C297.489 65.7649 295.891 66.1207 294.273 66.1228C293.257 66.068 292.261 65.8116 291.345 65.3686C290.489 65.0466 289.694 64.5816 288.994 63.9933L288.594 63.5719L288.328 63.3279C288.24 63.3079 288.149 63.3079 288.062 63.3279C287.862 63.3279 287.663 63.5275 287.441 63.9712C287.295 64.2081 287.162 64.4524 287.041 64.7031C286.886 64.9915 287.041 65.2577 287.263 65.546C288.162 66.3409 289.153 67.0259 290.214 67.5867C291.624 68.3697 293.215 68.7675 294.828 68.7402L294.739 68.5405ZM257.891 68.7624H260.243H262.461C263.159 68.7658 263.855 68.7214 264.547 68.6293H265.567C265.8 68.6474 266.032 68.5931 266.233 68.474C266.388 68.474 266.455 68.1856 266.455 67.8751V66.2559C266.455 65.0137 266.455 64.0377 266.455 63.4388V59.8232C266.455 57.2502 266.299 54.6993 266.299 52.1706C266.299 51.5273 266.299 50.1743 266.299 48.1336V45.4052L266.166 40.9689L267.519 43.3867C268.274 44.8063 268.983 46.1594 269.605 47.4238C272.333 53.568 274.041 57.2945 274.729 58.5145C275.417 59.7345 276.282 61.997 277.613 65.3242C277.835 65.8344 278.012 66.278 278.168 66.6773L278.545 67.6089C278.686 67.8906 278.865 68.1518 279.077 68.3853C279.217 68.4924 279.389 68.5473 279.565 68.5405H279.832H281.185C281.368 68.5068 281.556 68.5068 281.739 68.5405C282.316 68.5405 282.627 68.3187 282.627 67.6977V65.1024C282.627 61.2872 282.471 59.4683 282.471 59.5792C282.471 58.692 282.427 57.5829 282.338 56.252C282.338 55.6975 282.338 54.9877 282.338 54.0338C282.338 53.08 282.338 52.1928 282.338 51.1502V49.7972V40.4366V36.4661C282.325 36.2963 282.325 36.1257 282.338 35.9559C282.359 35.8162 282.359 35.6742 282.338 35.5345C282.379 35.4273 282.379 35.3089 282.338 35.2017C282.179 35.1523 282.009 35.1523 281.85 35.2017H281.118C280.823 35.2367 280.526 35.2367 280.231 35.2017L279.299 35.0687C279.205 35.0533 279.109 35.0605 279.019 35.0897C278.928 35.1188 278.846 35.1691 278.779 35.2362C278.712 35.3034 278.662 35.3856 278.632 35.476C278.603 35.5665 278.596 35.6625 278.611 35.7563L278.412 40.1926V43.6973C278.412 44.518 278.412 45.5605 278.412 46.847C278.412 48.5994 278.412 50.3074 278.412 51.9931V53.3906L278.611 57.9378V60.6217L277.169 57.8047L275.883 55.2538C275.727 55.0098 275.373 54.3444 274.862 53.2575C274.574 52.703 274.108 51.7048 273.465 50.2852L271.468 46.5809L269.25 41.8118L267.519 38.1075C267.076 37.0872 266.676 36.2665 266.366 35.601C266.203 35.2851 265.937 35.0345 265.612 34.8912C265.127 34.7247 264.615 34.6495 264.103 34.6694H260.154H259.644H258.956C258.784 34.6531 258.61 34.6742 258.447 34.7313C258.284 34.7885 258.135 34.8803 258.011 35.0004C257.886 35.1205 257.79 35.2661 257.727 35.4273C257.664 35.5884 257.637 35.7612 257.647 35.9337C257.559 37.1315 257.514 38.9504 257.514 41.3904C257.514 42.0558 257.337 44.9394 256.96 50.0634L256.738 53.3462C256.738 54.2778 256.56 55.8305 256.494 57.96C256.427 60.0894 256.494 61.997 256.494 63.5941C256.494 64.1264 256.494 64.7475 256.494 65.5017C256.487 66.1861 256.546 66.8695 256.671 67.5424C256.695 67.6968 256.695 67.8538 256.671 68.0082C256.717 68.2218 256.816 68.4203 256.96 68.5849C257.229 68.7797 257.561 68.8667 257.891 68.8289V68.7624ZM245.269 68.6515H249.506C249.857 68.6898 250.213 68.6519 250.549 68.5405C250.682 68.4666 250.788 68.3501 250.848 68.2095C250.908 68.0689 250.92 67.9122 250.881 67.7642C250.907 67.3061 250.907 66.847 250.881 66.3889V63.8381C250.857 63.4836 250.857 63.1279 250.881 62.7734C250.916 62.4193 250.916 62.0627 250.881 61.7086C250.881 60.9323 250.881 59.7345 250.881 58.1374V56.2742C250.881 55.7862 250.881 55.2982 250.881 54.8324V49.2205C250.881 47.5568 250.881 46.3369 250.881 45.5161C250.906 42.8088 251.091 40.1053 251.436 37.4199C251.436 37.2646 251.436 37.0872 251.436 36.9097C251.455 36.7402 251.455 36.569 251.436 36.3995C251.445 36.3027 251.429 36.2051 251.391 36.1159C251.352 36.0267 251.291 35.9488 251.214 35.8894C250.976 35.7356 250.699 35.6511 250.415 35.6454H248.929H247.953C247.554 35.6786 247.154 35.6786 246.755 35.6454H246.4C245.779 35.6454 245.468 36.2443 245.468 37.4643V39.394V41.0798V43.5642V47.8008V52.2371C245.468 52.5255 245.468 54.1226 245.202 57.0062C244.98 60.9767 244.869 63.0617 244.869 63.2835C244.857 64.0268 244.791 64.7682 244.67 65.5017C244.592 66.0684 244.592 66.643 244.67 67.2097C244.673 67.5994 244.756 67.9844 244.914 68.3409C244.914 68.5849 245.335 68.6736 245.779 68.6515H245.269ZM239.678 45.5161C239.678 39.8377 239.678 36.7545 239.678 36.3108C239.678 35.8672 239.678 35.4014 239.678 35.2905C239.695 35.1358 239.679 34.9794 239.634 34.8307C239.588 34.6821 239.512 34.5442 239.412 34.4254C239.143 34.2322 238.808 34.1525 238.48 34.2036C237.658 34.3397 236.828 34.4286 235.996 34.4698C234.931 34.4698 234.066 34.4698 233.378 34.4698C232.78 34.4489 232.182 34.5162 231.603 34.6694C231.204 34.7877 231.004 35.1426 231.004 35.7341C231.004 36.1999 231.004 37.3755 231.004 39.3053V41.834L230.317 40.7693C229.823 40.0565 229.371 39.3159 228.963 38.5511L228.498 37.7304C228.066 36.8862 227.545 36.0906 226.945 35.357C226.733 35.0897 226.463 34.8746 226.156 34.7284C225.848 34.5822 225.511 34.5089 225.17 34.5141C224.719 34.5399 224.267 34.5399 223.817 34.5141H223.04C222.7 34.4922 222.36 34.4922 222.02 34.5141C221.372 34.7083 220.7 34.8128 220.023 34.8247H219.091C218.956 34.8164 218.82 34.838 218.693 34.8878C218.567 34.9376 218.453 35.0145 218.359 35.113C218.13 35.4514 218.028 35.86 218.071 36.2665C218.071 36.4217 218.071 36.7766 218.071 37.3312C218.2 38.361 218.252 39.399 218.226 40.4366C218.226 41.4791 218.226 43.4311 218.226 46.2703C218.226 48.4885 218.071 50.7066 218.071 52.9248C218.071 55.1429 218.182 57.6272 218.315 60.5774C218.448 63.5275 218.448 65.3464 218.448 66.4555C218.388 66.9416 218.441 67.4351 218.603 67.8973C218.759 68.1191 219.047 68.1856 219.513 68.1191L221.399 67.9416C222.064 67.9416 222.641 67.9416 223.129 67.9416C223.355 67.9989 223.591 67.9989 223.817 67.9416C223.95 67.8529 224.016 67.6533 224.016 67.3428C224.029 67.1581 224.029 66.9728 224.016 66.7882C223.85 65.2339 223.776 63.671 223.794 62.1079C223.794 59.5127 223.794 57.4276 223.794 55.8084C223.773 55.3946 223.773 54.98 223.794 54.5662C223.794 54.1891 223.794 53.8786 223.794 53.6346V50.6623L225.835 54.4997C227.477 57.5607 228.498 59.424 228.897 60.1116C229.809 61.6829 230.631 63.3047 231.359 64.9693L232.136 66.5442C232.349 67.0496 232.658 67.509 233.045 67.8973C233.434 68.1663 233.905 68.2917 234.376 68.2522C234.709 68.2522 235.308 68.2522 236.173 68.2522H237.926C238.177 68.2329 238.429 68.2329 238.68 68.2522C238.864 68.2769 239.051 68.2769 239.235 68.2522C239.399 68.2783 239.567 68.2398 239.703 68.1446C239.84 68.0495 239.934 67.9052 239.967 67.742C239.967 67.3206 239.834 65.6348 239.767 62.729C239.7 59.8232 239.767 57.5385 239.767 55.9415L239.678 45.5161ZM203.474 33.272H204.095C204.377 33.2656 204.656 33.2054 204.916 33.0945C205.756 32.759 206.565 32.3508 207.334 31.8745C207.837 31.4771 208.371 31.121 208.931 30.8098L209.552 30.5436L210.772 29.7451C210.876 29.6932 210.964 29.6143 211.026 29.5167C211.089 29.4191 211.124 29.3064 211.127 29.1906C211.131 29.0842 211.106 28.9788 211.055 28.8853C211.005 28.7917 210.93 28.7133 210.839 28.6582C210.591 28.5112 210.306 28.4417 210.018 28.4586C209.432 28.4612 208.846 28.5057 208.266 28.5917C207.674 28.7543 207.164 28.9096 206.735 29.0575C206.334 29.1879 205.948 29.3589 205.581 29.5676L203.496 30.5436L201.877 29.8338C201.36 29.5165 200.818 29.242 200.257 29.0131L198.993 28.6804C198.598 28.5052 198.179 28.393 197.75 28.3477C197.373 28.3477 197.129 28.5917 196.996 29.0575C196.863 29.5233 196.996 29.7673 197.684 30.1C197.993 30.2532 198.29 30.4312 198.571 30.6324L199.547 31.2313C200.08 31.5418 200.819 32.0076 201.766 32.6287L202.276 32.917L202.875 33.2054C203.095 33.241 203.32 33.241 203.54 33.2054L203.474 33.272ZM204.45 68.7624C206.603 68.8897 208.732 68.2534 210.462 66.9657C211.728 65.9897 212.81 64.7953 213.656 63.4388C213.756 63.287 213.809 63.11 213.812 62.9286C213.813 62.8563 213.798 62.7846 213.767 62.7191C213.737 62.6537 213.691 62.5963 213.634 62.5515C213.465 62.4272 213.278 62.3299 213.08 62.2632L212.503 61.997L208.576 59.7789C208.407 59.6788 208.217 59.6182 208.022 59.6014C207.943 59.6064 207.866 59.629 207.797 59.6673C207.728 59.7057 207.668 59.7589 207.622 59.8232L207.312 60.1559C206.848 60.6178 206.335 61.0269 205.781 61.3759C205.285 61.7403 204.688 61.9419 204.073 61.9526C203.277 61.898 202.511 61.6298 201.854 61.1763C200.871 60.4579 200.104 59.4835 199.636 58.3592C198.896 56.6468 198.554 54.7885 198.638 52.9248C198.579 50.9712 198.849 49.0216 199.436 47.1576C199.799 45.9337 200.462 44.8202 201.366 43.9191C201.968 43.3468 202.755 43.0085 203.585 42.9653C204.05 42.9516 204.505 43.1007 204.871 43.3867C205.394 43.862 205.89 44.3656 206.358 44.8951C206.447 45.0186 206.559 45.1234 206.688 45.2033C206.818 45.2833 206.962 45.3368 207.112 45.3609C207.356 45.3527 207.587 45.2492 207.755 45.0725C208.046 44.7917 208.313 44.4876 208.554 44.1631C209.438 43.0535 210.468 42.0686 211.615 41.2351C211.948 40.9246 212.126 40.6806 212.126 40.5031C212.116 40.3332 212.054 40.1704 211.948 40.0373L211.615 39.5271C210.809 38.4894 209.825 37.6032 208.709 36.9097C207.131 35.918 205.292 35.4234 203.429 35.4901C201.52 35.5511 199.696 36.2903 198.283 37.5752C196.482 39.1585 195.076 41.1411 194.179 43.3645C193.08 46.0136 192.537 48.8596 192.581 51.727C192.547 54.6645 193.114 57.578 194.245 60.289C195.203 62.6673 196.726 64.7762 198.682 66.4333C200.277 67.8398 202.324 68.627 204.45 68.6515V68.7624ZM186.969 68.4296C187.459 68.4774 187.953 68.409 188.411 68.23C188.538 68.1641 188.651 68.0736 188.744 67.9638C188.847 67.8318 188.895 67.6647 188.877 67.498C188.89 67.2838 188.89 67.069 188.877 66.8548C188.877 66.3224 188.744 64.6366 188.677 61.9526C188.61 59.2687 188.677 56.9618 188.677 55.1651C188.677 54.4331 188.677 52.3702 188.855 48.9543C189.032 45.5383 189.054 43.2536 189.054 42.2998C189.054 39.4828 189.187 37.7304 189.276 37.065C189.265 36.8655 189.265 36.6656 189.276 36.4661C189.296 36.2892 189.296 36.1106 189.276 35.9337C189.276 35.5123 189.121 35.2905 188.81 35.2905H187.102C186.614 35.2905 186.37 35.6897 186.37 36.4883V37.4643C186.446 38.4906 186.446 39.5211 186.37 40.5475C186.348 42.3664 186.348 43.6307 186.348 44.3627C186.215 47.6456 186.148 49.7528 186.148 50.6844V60.3999V66.4777V67.9638C186.104 68.0857 186.104 68.2191 186.148 68.3409C186.308 68.3822 186.476 68.3822 186.636 68.3409L186.969 68.4296ZM166.205 69.3613C166.382 69.3613 166.604 69.206 166.87 68.8955C167.141 68.5739 167.365 68.2154 167.536 67.8307L168.29 66.3446L169.732 63.5053C170.442 62.1301 170.952 61.1763 171.263 60.6439L172.749 57.6716C174.124 54.8546 174.967 53.0579 175.433 52.2371C175.588 51.9931 175.722 51.7491 175.855 51.5051L176.165 50.8619C176.631 49.9303 176.986 49.2426 177.23 48.8212C177.474 48.3997 177.74 47.823 178.384 46.603C178.384 47.2685 178.384 48.2667 178.384 49.5532C178.384 51.9488 178.384 53.5015 178.384 54.2557C178.384 55.0098 178.228 57.228 178.162 60.2447C178.095 63.2614 178.162 65.4351 178.162 66.766V67.5424C178.162 67.7642 178.162 67.8973 178.384 67.9195C178.605 67.9416 179.182 67.9195 180.003 67.9195C180.358 67.9195 180.513 67.7642 180.513 67.4537V67.3206V59.7567C180.513 58.9581 180.646 57.3832 180.691 55.0542C180.735 52.7251 180.691 50.7953 180.691 49.287C180.691 44.9616 180.691 41.9893 180.824 40.4144L180.957 38.7508C180.957 38.4402 180.957 38.0853 180.957 37.7083C180.957 37.3312 180.957 36.9097 180.957 36.5105C180.957 36.1112 180.824 35.4457 180.58 35.4457C180.336 35.4457 180.092 35.8006 179.759 36.4661C179.426 37.1315 179.116 37.9744 178.783 38.9504C178.45 39.9264 178.273 40.5031 178.206 40.6806C178.14 40.858 177.873 41.5013 177.541 42.1889C177.208 42.8765 176.942 43.4754 176.72 43.9856C175.855 45.8045 175.211 47.2463 174.745 48.4219C174.124 49.8859 172.815 52.4811 170.797 56.2076C169.843 58.0265 169.266 59.1578 169.088 59.6014L167.913 62.1079L167.314 63.1726L166.382 60.0229C165.694 57.9156 165.162 56.3629 164.763 55.3426C164.363 54.3222 163.476 52.2371 162.189 48.8877C160.903 45.5383 160.104 43.4089 159.793 42.4551C159.379 41.1242 159.046 40.0373 158.795 39.1944C158.584 38.4701 158.443 37.7274 158.374 36.9763C158.374 36.089 157.952 35.6232 157.442 35.6232C157.058 35.6496 156.672 35.6496 156.288 35.6232H155.911C155.758 35.5856 155.598 35.5856 155.445 35.6232C155.445 35.6232 155.312 35.9116 155.312 36.3108V36.4883C155.312 37.2572 155.312 38.2554 155.312 39.4828C155.312 40.7028 155.179 41.8118 155.09 42.8322C155.002 43.8525 155.09 45.0503 154.913 47.2685C154.735 49.4866 154.913 51.3721 154.913 52.947L155.046 62.6403V67.0766V67.9195C155.046 68.1413 155.046 68.23 155.268 68.23H156.022C156.271 68.2194 156.52 68.257 156.754 68.3409C157.198 68.3409 157.42 68.1413 157.42 67.5867V67.4537V62.7734C157.42 61.4425 157.42 60.5552 157.42 60.1338C157.42 58.4036 157.597 55.3426 157.597 50.9506C157.597 49.6197 157.597 48.7325 157.597 47.9783V46.2703C157.597 46.603 158.041 47.6456 158.618 49.3757L159.305 51.5939C159.527 52.3037 159.771 53.0579 160.06 53.812C160.348 54.5662 160.725 55.764 161.413 57.472C162.1 59.18 162.633 60.533 163.077 61.5977C163.52 62.6625 163.897 63.6384 164.519 65.413C165.14 67.1875 165.472 68.1635 165.517 68.3631C165.58 68.5068 165.632 68.6551 165.672 68.8067C165.716 68.9568 165.783 69.0991 165.872 69.2282C165.921 69.2841 165.983 69.3274 166.053 69.3544C166.122 69.3814 166.197 69.3914 166.271 69.3834L166.205 69.3613ZM149.167 68.0304C149.416 68.041 149.665 68.0033 149.899 67.9195C149.978 67.8769 150.043 67.8124 150.087 67.7337C150.13 67.655 150.15 67.5654 150.143 67.4758C150.119 67.225 150.119 66.9725 150.143 66.7217C150.143 66.4777 150.143 66.2559 150.143 66.034C150.179 65.8361 150.179 65.6331 150.143 65.4351C150.143 65.4351 149.944 65.302 149.7 65.302H148.59C148.102 65.302 147.481 65.302 146.727 65.302H144.797C143.732 65.302 142.889 65.302 142.246 65.302H139.828H137.321H134.304H132.551C132.551 64.7919 132.551 64.4148 132.551 64.1264V61.9083V56.3851C132.581 55.9567 132.581 55.5269 132.551 55.0986C132.522 54.6628 132.522 54.2256 132.551 53.7898C132.522 53.2949 132.522 52.7986 132.551 52.3037L132.684 51.5717H133.993H135.102C135.642 51.6073 136.183 51.6073 136.722 51.5717C137.964 51.5717 139.894 51.4164 142.512 51.4164C143.222 51.4164 144.73 51.5273 146.949 51.7491L148.79 51.9266C148.972 51.9692 149.162 51.9692 149.345 51.9266C149.345 51.9266 149.345 51.7491 149.5 51.483C149.655 51.2168 149.5 50.9506 149.5 50.6401C149.486 50.3667 149.486 50.0927 149.5 49.8194C149.548 49.6983 149.548 49.5634 149.5 49.4423C149.451 49.3655 149.381 49.304 149.299 49.2648C149.216 49.2256 149.125 49.2102 149.034 49.2205H148.746C148.517 49.2512 148.286 49.2512 148.058 49.2205C147.747 49.2205 147.193 49.2205 146.394 49.2205H144.863H143.51H142.445H141.425L138.852 48.799C138.275 48.799 137.565 48.799 136.766 48.799C136.397 48.8183 136.027 48.8183 135.657 48.799H133.794C133.38 48.8266 132.965 48.8266 132.551 48.799C132.551 48.5328 132.551 48.1336 132.551 47.6456V45.9154C132.551 45.5827 132.551 45.0503 132.551 44.2962C132.551 43.542 132.551 42.8544 132.551 42.3442C132.551 41.3682 132.551 40.6362 132.551 40.126V38.8839H133.616L135.701 38.7286H148.857C149.144 38.7012 149.434 38.7012 149.722 38.7286H150.343C150.476 38.7286 150.543 38.3737 150.543 37.6639V37.1537C150.535 37.0207 150.535 36.8874 150.543 36.7544C150.554 36.5535 150.507 36.3535 150.409 36.1777C150.409 36.0003 150.099 35.8894 149.722 35.8894C148.857 35.8894 148.036 35.8894 147.259 35.8894C144.863 35.8894 142.978 35.8894 141.647 35.8894C140.316 35.8894 138.896 35.8894 136.788 36.0668L133.86 36.1777C133.489 36.1612 133.118 36.1242 132.751 36.0668H131.553C130.555 36.0668 130.111 36.4439 130.2 37.1759C130.2 38.3293 130.355 40.7028 130.355 44.274C130.355 44.8063 130.355 45.3831 130.355 46.0263V47.9783C130.2 51.2168 130.133 53.1909 130.133 53.8786C130.133 55.4756 130.178 57.1393 130.266 58.8694C130.266 60.9767 130.266 62.485 130.266 63.3057C130.266 64.1264 130.266 64.925 130.266 65.2799C130.281 65.5014 130.281 65.7237 130.266 65.9453C130.289 66.0848 130.289 66.2272 130.266 66.3668V67.0988C130.253 67.1992 130.267 67.3012 130.306 67.3946C130.345 67.4881 130.408 67.5696 130.488 67.6311C130.744 67.7748 131.039 67.8367 131.331 67.8086C132.019 67.8086 132.618 67.8086 133.106 67.8086H137.41H140.005C140.693 67.8086 141.802 67.8086 143.355 67.8086C145.884 67.8086 147.57 67.8086 148.391 67.9416H149.234L149.167 68.0304ZM114.005 48.2445V47.8674V47.4459C114.005 46.9 114.072 46.3562 114.205 45.8267C114.222 45.583 114.222 45.3384 114.205 45.0947C114.205 44.6954 114.205 44.2962 114.205 43.8747C114.205 43.4533 114.205 43.2758 114.205 43.2314C114.34 43.0985 114.504 42.9988 114.684 42.9401C114.864 42.8815 115.055 42.8655 115.242 42.8935C115.429 42.9215 115.607 42.9926 115.762 43.1013C115.917 43.21 116.045 43.3533 116.135 43.5198C116.464 44.131 116.611 44.824 116.557 45.5161C116.616 46.0055 116.525 46.5015 116.295 46.9376C116.065 47.3737 115.708 47.7291 115.27 47.9561C114.879 48.155 114.444 48.2541 114.005 48.2445ZM107.838 68.8733C108.127 68.8733 108.903 68.8733 110.212 68.6736C111.411 68.5192 112.62 68.4599 113.828 68.4962H114.294C114.41 68.5144 114.528 68.5054 114.64 68.4698C114.752 68.4343 114.853 68.3732 114.937 68.2914C115.021 68.2095 115.085 68.1093 115.124 67.9985C115.162 67.8877 115.174 67.7695 115.159 67.6533C115.184 67.5065 115.184 67.3565 115.159 67.2097C115.159 66.766 114.893 64.4813 114.693 60.3334L114.471 56.8065L114.338 54.3666L116.69 58.9581C118.22 62.0192 119.285 64.1042 119.906 65.2133C120.225 65.8061 120.499 66.4215 120.727 67.0544C120.891 67.4523 121.084 67.8378 121.304 68.2078C121.361 68.3106 121.444 68.396 121.546 68.4546C121.648 68.5133 121.763 68.543 121.881 68.5405L127.116 68.4075H127.382H127.782C127.937 68.4075 128.004 68.2966 128.004 68.1635C127.879 67.6817 127.66 67.2294 127.36 66.8326C126.961 66.278 125.563 63.8603 123.19 59.6014L119.951 53.7011C120.783 52.9938 121.528 52.1896 122.169 51.3055C123.568 49.4234 124.344 47.151 124.388 44.8063C124.441 43.5359 124.236 42.2678 123.786 41.0785C123.336 39.8892 122.65 38.8031 121.77 37.8857C120.716 36.9375 119.48 36.2128 118.138 35.7553C116.796 35.2978 115.375 35.117 113.961 35.2239C112.205 35.2139 110.45 35.3028 108.703 35.4901L107.683 35.601H107.106C106.995 35.601 106.884 35.7341 106.796 35.9337C106.69 36.2782 106.645 36.6385 106.662 36.9984C106.662 37.4421 106.662 37.7748 106.662 38.0188C106.796 39.9486 106.84 42.7656 106.84 46.5143C106.906 48.6906 106.832 50.8689 106.618 53.0357C106.501 53.9178 106.456 54.808 106.485 55.6975C106.485 58.0931 106.574 60.8879 106.751 64.0821V66.7882V67.8529C106.723 68.1306 106.802 68.4086 106.973 68.6293C107.082 68.7228 107.209 68.7927 107.347 68.8347C107.484 68.8767 107.629 68.8898 107.772 68.8733H107.838ZM87.6285 52.7473L87.9168 37.7083C89.0926 37.7083 89.9134 37.5973 90.4236 37.5973C91.4108 37.5867 92.3974 37.6534 93.3741 37.797C94.8237 37.9649 96.2259 38.4172 97.5004 39.1279C98.0528 39.4411 98.5273 39.8752 98.8884 40.3975C99.2495 40.9199 99.4878 41.5171 99.5857 42.1446C99.8379 43.3482 99.9643 44.5747 99.9628 45.8045C100.017 47.0349 99.7497 48.2583 99.1864 49.3535C98.6109 50.3266 97.7517 51.1006 96.7239 51.5717C94.939 52.2951 93.0369 52.686 91.1114 52.7251C89.9553 52.8568 88.7916 52.9087 87.6285 52.8804V52.7473ZM81.7053 68.4075H83.5022H85.2769H85.7428C85.9269 68.4307 86.1133 68.4307 86.2974 68.4075C87.0295 68.4075 87.4066 67.9416 87.4066 67.0322V60.4887V55.4313C90.1049 55.4207 92.7849 54.9866 95.3485 54.1448C97.4845 53.4286 99.4223 52.2205 101.005 50.6179C101.767 49.7895 102.356 48.8173 102.737 47.7584C103.118 46.6995 103.283 45.5752 103.224 44.4514C103.24 42.6334 102.602 40.8702 101.427 39.4828L100.384 38.2406C99.6948 37.4354 98.7849 36.8495 97.7666 36.5548C96.5642 36.1794 95.3197 35.9559 94.0618 35.8894C92.9083 35.4901 90.9561 35.4901 88.3383 35.4901C87.0471 35.5095 85.7581 35.6058 84.4783 35.7785L82.2599 35.9559C82.0177 35.9334 81.7737 35.9715 81.55 36.0668C81.55 36.0668 81.3725 36.4439 81.3725 36.9319L81.1951 39.9264C81.062 41.3682 81.0176 42.7213 81.0176 43.9634V56.6513C81.0176 56.6513 81.0176 59.1134 80.8623 63.8381C80.8623 64.7031 80.8623 65.3464 80.8623 65.79C80.8623 66.2337 80.8623 66.522 80.8623 66.6773C80.8406 67.0576 80.909 67.4376 81.062 67.7864C81.1277 67.9077 81.2285 68.0064 81.3511 68.0697C81.4738 68.133 81.6126 68.158 81.7497 68.1413L81.7053 68.4075ZM57.5912 68.1413H57.8796H59.6321L65.2003 68.0082H69.9255H73.3641H74.3402C74.6498 68.0455 74.9638 67.9996 75.2497 67.8751C75.4716 67.7642 75.5825 67.4537 75.5825 66.9657V63.7272V62.7955C75.5982 62.5561 75.5443 62.3173 75.4272 62.1079C75.3311 62.0076 75.2128 61.9313 75.0818 61.885C74.9508 61.8388 74.8107 61.824 74.6729 61.8417H72.7429H69.5262H66.8863H61.429H60.1202C59.9512 61.8691 59.7789 61.8691 59.6099 61.8417V57.3611C59.7031 57.395 59.8052 57.395 59.8983 57.3611C60.0973 57.3844 60.2983 57.3844 60.4973 57.3611C60.7191 57.3611 61.3403 57.2945 62.3608 57.1614C63.562 57.0374 64.7691 56.9782 65.9768 56.984H69.0604H70.5911H71.0347H71.4341C71.4984 56.9909 71.5634 56.9801 71.6221 56.9527C71.6807 56.9254 71.7308 56.8825 71.7668 56.8287C71.8121 56.6391 71.8121 56.4416 71.7668 56.252V53.7898C71.7668 53.4349 71.7668 53.1244 71.7668 52.8804C71.7668 52.6364 71.7668 52.4811 71.7668 52.348C71.7668 52.215 71.5672 51.7935 71.1679 51.7935H70.1917C69.7557 51.7714 69.3189 51.7714 68.8829 51.7935H66.9529C65.644 51.7935 64.7345 51.7935 63.9802 51.7935C62.3386 51.7935 61.2515 51.7935 60.7413 51.7935C60.3203 51.8231 59.8978 51.8231 59.4768 51.7935C59.4768 51.4608 59.4768 50.9728 59.4768 50.3074V47.8674C59.4768 47.091 59.4768 46.0929 59.4768 44.8507C59.5027 44.3778 59.5027 43.9039 59.4768 43.4311C59.4429 43.1734 59.4429 42.9124 59.4768 42.6547C59.4768 42.5438 59.6321 42.4995 59.8761 42.4995H62.3386C63.0485 42.4995 63.8693 42.4995 64.801 42.4995C65.2146 42.4714 65.6297 42.4714 66.0433 42.4995C66.8198 42.4995 67.4187 42.4995 67.818 42.4995H69.5706C70.9179 42.462 72.2662 42.5065 73.6081 42.6325L74.1183 42.7656C74.2877 42.7882 74.4592 42.7882 74.6286 42.7656C75.0279 42.7656 75.2497 42.5216 75.2719 42.0558C75.3638 41.4912 75.4083 40.9199 75.405 40.3479C75.405 39.749 75.405 39.0613 75.405 38.2628C75.405 37.4643 75.405 37.1094 75.405 36.821C75.4272 36.4716 75.3664 36.122 75.2275 35.8006C75.1237 35.6981 74.9976 35.6208 74.8592 35.5747C74.7207 35.5286 74.5735 35.5148 74.4289 35.5345H72.7651C71.7224 35.5345 70.5467 35.4014 69.2822 35.4014C68.735 35.4014 67.6258 35.4679 65.9546 35.601C64.7542 35.7411 63.5471 35.8152 62.3386 35.8228C61.429 35.8228 60.6748 35.8228 60.1202 35.8228H58.7891H58.0792C57.8479 35.8109 57.6198 35.8817 57.4359 36.0225C57.3445 36.1367 57.2777 36.2685 57.2395 36.4097C57.2013 36.5509 57.1927 36.6985 57.214 36.8432C57.214 39.4384 57.0588 41.7009 57.0588 43.6529C57.0588 44.518 57.0588 45.4718 57.1697 46.5143C57.2806 47.5568 57.3028 48.7325 57.3028 50.3295C57.3028 51.9266 57.3028 52.9691 57.1253 54.4109C57.1485 54.8395 57.1485 55.2689 57.1253 55.6975C57.1253 56.2742 57.1253 56.8953 57.1253 57.4942V63.8603C57.1253 64.3482 57.1253 64.7475 57.1253 65.0359C57.1468 65.309 57.1468 65.5834 57.1253 65.8566C57.0928 66.4254 57.0928 66.9957 57.1253 67.5646C57.0962 67.7706 57.0962 67.9796 57.1253 68.1856C57.1253 68.2965 57.2584 68.3409 57.4359 68.3409L57.5912 68.1413ZM26.9993 68.7624H29.373H31.5914C32.2887 68.7649 32.9854 68.7204 33.6767 68.6293H34.6972C34.9227 68.6472 35.148 68.5928 35.3405 68.474C35.4599 68.3781 35.541 68.2427 35.5695 68.0923C35.598 67.9418 35.5718 67.7862 35.4958 67.6533V66.034C35.4958 64.7919 35.3849 63.8159 35.3849 63.217V59.6014C35.2962 57.0283 35.2518 54.4775 35.2518 51.9488C35.2518 51.3055 35.2518 49.9524 35.2518 47.9117V45.1834L35.0965 40.7471L36.4497 43.1649C37.2262 44.5845 37.9139 45.9376 38.535 47.2019C41.2859 53.3536 43.0014 57.0505 43.6817 58.2927C44.2585 59.5127 45.2346 61.7752 46.5657 65.1024C46.7653 65.6126 46.965 66.0562 47.1203 66.4555L47.4752 67.3871C47.6247 67.664 47.8031 67.9243 48.0076 68.1635C48.1489 68.2674 48.3204 68.322 48.4957 68.3187H48.7841H50.1151C50.3059 68.2852 50.5011 68.2852 50.6919 68.3187C51.2687 68.3187 51.5571 68.0969 51.5571 67.4758V64.8806C51.5571 61.0654 51.424 59.2465 51.424 59.3574C51.424 58.4701 51.3796 57.3611 51.2909 56.0302C51.2909 55.4756 51.2909 54.7658 51.18 53.812C51.069 52.8582 51.18 51.971 51.18 50.9284V49.5754L51.0247 40.2148V36.2443C51.0007 36.0751 51.0007 35.9033 51.0247 35.7341C51.0344 35.5938 51.0344 35.453 51.0247 35.3127C51.0325 35.1915 50.9927 35.0722 50.9138 34.9799C50.7544 34.9331 50.585 34.9331 50.4257 34.9799H49.6714C49.3841 35.015 49.0936 35.015 48.8063 34.9799L47.8745 34.8468C47.78 34.8325 47.6833 34.8402 47.5922 34.8693C47.5011 34.8985 47.4179 34.9483 47.3492 35.0148C47.2805 35.0814 47.2281 35.1629 47.1961 35.253C47.1641 35.3432 47.1533 35.4395 47.1646 35.5345L46.9872 39.9708V43.4754C46.9872 44.2962 46.9872 45.3387 46.9872 46.6252C46.9872 48.3776 46.9872 50.0855 46.9872 51.7713V53.1688L47.209 57.6716V60.3556L45.767 57.5385L44.4582 54.9876C44.3029 54.7437 43.9701 54.0782 43.4377 52.9913C43.1715 52.4368 42.7056 51.4386 42.0623 50.019C41.419 48.5994 40.8865 47.4459 40.4872 46.5809L38.2688 41.8118L36.5606 38.1075L35.4958 35.4901C35.3246 35.1726 35.0509 34.9224 34.7194 34.7803C34.235 34.6118 33.7232 34.5365 33.2108 34.5585H29.2843H28.774H28.0863C27.9142 34.5422 27.7405 34.5633 27.5773 34.6204C27.4141 34.6776 27.2653 34.7694 27.1409 34.8895C27.0165 35.0096 26.9197 35.1552 26.8569 35.3163C26.7942 35.4775 26.7671 35.6502 26.7775 35.8228C26.6887 37.0206 26.6444 38.8395 26.6444 41.2795C26.6444 41.9449 26.4447 44.8285 26.0897 49.9524L25.8901 53.2353C25.8901 54.1669 25.7348 55.7196 25.6683 57.8491C25.6017 59.9785 25.6683 61.8861 25.6683 63.4832C25.6683 64.0155 25.6683 64.6366 25.6683 65.3908C25.6557 66.0764 25.7227 66.7612 25.8679 67.4315C25.8805 67.5865 25.8805 67.7423 25.8679 67.8973C25.9035 68.1143 26.004 68.3154 26.1563 68.474C26.4168 68.6694 26.7426 68.7568 27.0658 68.718" fill="#61A4DA"/>
</svg>
